<svg width="40" height="40" viewBox="0 0 40 40" fill="none" xmlns="http://www.w3.org/2000/svg">
<path opacity="0.6" d="M26.667 28.3333L15.0003 28.3333" stroke="#4169E1" stroke-width="2" stroke-linecap="round" stroke-linejoin="round"/>
<path opacity="0.6" d="M26.667 21.6666L21.667 21.6666" stroke="#4169E1" stroke-width="2" stroke-linecap="round" stroke-linejoin="round"/>
<path d="M34.167 23.3333C34.167 29.6187 34.167 32.7614 32.0923 34.714C30.0177 36.6666 26.6786 36.6666 20.0003 36.6666H18.7124C13.2771 36.6666 10.5594 36.6666 8.67211 35.3369C8.13136 34.9559 7.65129 34.5041 7.24649 33.9951C5.83366 32.2188 5.83366 29.661 5.83366 24.5454V20.303C5.83366 15.3644 5.83366 12.8951 6.61522 10.9229C7.87168 7.75233 10.5289 5.25143 13.8976 4.06888C15.993 3.33329 18.6167 3.33329 23.864 3.33329C26.8624 3.33329 28.3616 3.33329 29.559 3.75363C31.484 4.42937 33.0024 5.85846 33.7204 7.6702C34.167 8.79716 34.167 10.2082 34.167 13.0303V23.3333Z" stroke="#4169E1" stroke-width="2" stroke-linejoin="round"/>
<path d="M5.83333 20C5.83333 16.9318 8.32064 14.4444 11.3889 14.4444C12.4985 14.4444 13.8067 14.6389 14.8856 14.3498C15.8442 14.0929 16.5929 13.3442 16.8498 12.3856C17.1389 11.3067 16.9444 9.99853 16.9444 8.88889C16.9444 5.82064 19.4318 3.33333 22.5 3.33333" stroke="#4169E1" stroke-width="2" stroke-linecap="round" stroke-linejoin="round"/>
</svg>
