<svg width="40" height="40" viewBox="0 0 40 40" fill="none" xmlns="http://www.w3.org/2000/svg">
<path d="M20.0007 36.6665L16.6673 26.6665H3.33398L6.66732 36.6665H20.0007ZM20.0007 36.6665H26.6673" stroke="#CFFE25" stroke-width="2" stroke-linecap="round" stroke-linejoin="round"/>
<path d="M19.9993 21.6665V20.8332C19.9993 17.6905 19.9993 16.1191 19.023 15.1428C18.0467 14.1665 16.4754 14.1665 13.3327 14.1665C10.19 14.1665 8.61864 14.1665 7.64233 15.1428C6.66602 16.1191 6.66602 17.6905 6.66602 20.8332V21.6665" stroke="#CFFE25" stroke-width="2" stroke-linecap="round" stroke-linejoin="round"/>
<path d="M31.6667 21.6667C31.6667 23.5077 30.1743 25 28.3333 25C26.4924 25 25 23.5077 25 21.6667C25 19.8258 26.4924 18.3334 28.3333 18.3334C30.1743 18.3334 31.6667 19.8258 31.6667 21.6667Z" stroke="#CFFE25" stroke-width="2"/>
<path d="M16.6667 6.66671C16.6667 8.50766 15.1743 10 13.3333 10C11.4924 10 10 8.50766 10 6.66671C10 4.82576 11.4924 3.33337 13.3333 3.33337C15.1743 3.33337 16.6667 4.82576 16.6667 6.66671Z" stroke="#CFFE25" stroke-width="2"/>
<path d="M23.334 29.1665H33.334C35.1749 29.1665 36.6673 30.6589 36.6673 32.4998V33.3332C36.6673 35.1741 35.1749 36.6665 33.334 36.6665H31.6673" stroke="#CFFE25" stroke-width="2" stroke-linecap="round"/>
</svg>
