<svg width="40" height="40" viewBox="0 0 40 40" fill="none" xmlns="http://www.w3.org/2000/svg">
<path opacity="0.4" d="M18.3332 25.3508C17.4007 25.1995 16.5481 24.7938 15.877 24.1228M15.877 24.1228C15.206 23.4517 14.8003 22.599 14.649 21.6666M15.877 24.1228L6.6665 33.3333" stroke="#FFFFFF" stroke-width="2" stroke-linecap="round"/>
<path opacity="0.4" d="M20 10C21.1872 8.24849 22.7952 5.30201 25.1775 5.0183C26.8037 4.82464 28.1509 6.17186 30.8454 8.8663L31.1337 9.15462C33.8281 11.8491 35.1754 13.1963 34.9817 14.8225C34.698 17.2048 31.7515 18.8128 30 20" stroke="#FFFFFF" stroke-width="2" stroke-linejoin="round"/>
<path d="M22.1419 32.2745L9.70405 34.5843C7.31839 35.0273 6.12556 35.2488 5.43838 34.5616C4.7512 33.8744 4.9727 32.6815 5.41571 30.2957L7.72538 17.8572C8.09574 15.8627 8.28093 14.8654 8.93837 14.2628C9.59581 13.6603 10.7982 13.5427 13.2028 13.3075C15.5205 13.0808 17.7138 12.2863 20 10L30 20.0009C27.7138 22.2872 26.9189 24.4791 26.6918 26.7968C26.4563 29.2018 26.3385 30.4043 25.736 31.0616C25.1334 31.7189 24.1363 31.9041 22.1419 32.2745Z" stroke="#FFFFFF" stroke-width="2" stroke-linejoin="round"/>
</svg>
