<svg width="52" height="53" viewBox="0 0 52 53" fill="none" xmlns="http://www.w3.org/2000/svg">
<path fill-rule="evenodd" clip-rule="evenodd" d="M29.8532 11.8713L30.0129 10.6797L27.6297 10.3602L27.4699 11.5518L26.0169 22.3916L20.1791 11.835L19.5972 10.7829L17.493 11.9466L18.0748 12.9987L24.9357 25.4052L11.325 24.7006L10.1243 24.6385L10 27.0398L11.2007 27.102L22.4829 27.686L13.6473 32.9376L12.6138 33.5519L13.8423 35.6189L14.8758 35.0046L22.811 30.2882L16.8277 37.973L16.0891 38.9217L17.9864 40.3989L18.725 39.4502L26.4284 29.5562L32.6808 39.4616L33.3225 40.4783L35.3559 39.1949L34.7141 38.1782L30.3804 31.3123L37.116 37.0312L38.0324 37.8094L39.5887 35.9764L38.6723 35.1982L31.4545 29.0699L40.3711 30.5645L41.5569 30.7632L41.9543 28.3918L40.7686 28.193L29.004 26.2211L37.4385 15.6639L38.189 14.7246L36.3104 13.2237L35.5599 14.163L28.3335 23.2081L29.8532 11.8713Z" fill="white"/>
<path opacity="0.4" fill-rule="evenodd" clip-rule="evenodd" d="M13.3767 16.4432L14.3651 17.1276L26.5824 25.5876L26.6129 25.6087L27.2949 25.4625L40.3208 22.6707L41.4964 22.4187L42.0003 24.7699L40.8247 25.0218L28.3336 27.6991L28.1909 28.6408L26.2941 41.1677L26.1141 42.3564L23.7366 41.9964L23.9166 40.8077L25.8135 28.2808L25.8547 28.0084L25.2135 27.5644L12.9962 19.1045L12.0078 18.42L13.3767 16.4432Z" fill="white"/>
</svg>
