<svg width="40" height="41" viewBox="0 0 40 41" fill="none" xmlns="http://www.w3.org/2000/svg">
<path fill-rule="evenodd" clip-rule="evenodd" d="M29.0441 13.1652C33.0561 17.9571 32.5043 24.9519 27.929 28.7995C26.0587 30.3723 23.7998 31.188 21.5028 31.2804C20.7279 31.3117 20.1251 31.9665 20.1563 32.743C20.1873 33.5198 20.8407 34.1239 21.6156 34.0928C24.505 33.9763 27.3663 32.9469 29.7341 30.9556C35.5544 26.0609 36.156 17.2809 31.1954 11.356C26.2348 5.43109 17.5029 4.50019 11.6826 9.39481C9.31483 11.386 7.80633 14.0314 7.19027 16.863C7.025 17.6224 7.50523 18.3723 8.26301 18.5377C9.02068 18.7034 9.76883 18.2221 9.93401 17.4626C10.4238 15.2116 11.6176 13.1237 13.4877 11.5509C18.063 7.70324 25.0321 8.37317 29.0441 13.1652ZM23.0327 23.339C24.5179 22.0901 24.7116 19.8709 23.4655 18.3825C22.2192 16.894 20.005 16.6998 18.5198 17.9488C17.0347 19.1977 16.841 21.4169 18.0872 22.9054C19.3334 24.3938 21.5476 24.588 23.0327 23.339ZM24.2588 24.8282C26.5466 23.0528 26.9716 19.6047 25.0389 17.1034C23.1064 14.6021 19.669 14.1513 17.3813 15.9268C16.3241 16.7472 15.6703 17.9096 15.4554 19.1777C15.4587 19.2441 15.4575 19.3117 15.4513 19.3799C15.3804 20.1538 14.6969 20.7238 13.9247 20.6527C12.6339 20.534 11.3328 20.8762 10.2655 21.7045C7.97775 23.48 7.5528 26.9281 9.48537 29.4293C11.418 31.9307 14.8553 32.3814 17.143 30.606C18.2003 29.7855 18.8541 28.6231 19.0689 27.355C19.0656 27.2886 19.0668 27.2211 19.0731 27.1528C19.1439 26.3788 19.8274 25.809 20.5996 25.88C21.8904 25.9987 23.1915 25.6566 24.2588 24.8282ZM21.6406 28.6991C23.1707 28.5965 24.6822 28.0594 25.9783 27.0536C29.5768 24.2609 30.0747 19.0241 27.2594 15.3802C24.444 11.7364 19.2606 10.9086 15.6619 13.7014C14.2673 14.7837 13.3346 16.244 12.8837 17.8336C11.3536 17.9362 9.8421 18.4733 8.54607 19.4791C4.94749 22.2719 4.4496 27.5087 7.26497 31.1525C10.0803 34.7964 15.2638 35.6241 18.8624 32.8313C20.257 31.749 21.1898 30.2887 21.6406 28.6991Z" fill="#FFFFFF"/>
</svg>
