<svg width="40" height="41" viewBox="0 0 40 41" fill="none" xmlns="http://www.w3.org/2000/svg">
<path fill-rule="evenodd" clip-rule="evenodd" d="M23.5025 7.17181L23.6476 6.08613L21.4811 5.79504L21.3358 6.88074L20.0149 16.7569L14.7078 7.13877L14.1788 6.18017L12.2659 7.24039L12.7948 8.19898L19.032 19.5027L6.65863 18.8607L5.56711 18.8041L5.4541 20.992L6.54562 21.0486L16.8022 21.5807L8.76981 26.3655L7.83026 26.9252L8.94713 28.8085L9.88665 28.2488L17.1005 23.9516L11.6611 30.9533L10.9896 31.8177L12.7145 33.1636L13.3859 32.2992L20.389 23.2847L26.073 32.3096L26.6564 33.2359L28.5049 32.0666L27.9215 31.1403L23.9817 24.8847L30.105 30.0952L30.9381 30.8043L32.3529 29.1342L31.5198 28.4252L24.9582 22.8416L33.0642 24.2034L34.1422 24.3844L34.5035 22.2238L33.4256 22.0427L22.7305 20.246L30.3982 10.6273L31.0805 9.77145L29.3726 8.40398L28.6904 9.25977L22.1209 17.5009L23.5025 7.17181Z" fill="#FFFFFF"/>
<path opacity="0.4" fill-rule="evenodd" clip-rule="evenodd" d="M8.52473 11.3373L9.42326 11.9608L20.5299 19.6688L20.5576 19.6881L21.1776 19.5549L33.0194 17.0112L34.0881 16.7816L34.5462 18.9238L33.4774 19.1533L22.1219 21.5927L21.9922 22.4506L20.2678 33.864L20.1042 34.9471L17.9428 34.6191L18.1064 33.536L19.8309 22.1226L19.8684 21.8745L19.2854 21.4699L8.17885 13.762L7.28027 13.1384L8.52473 11.3373Z" fill="#FFFFFF"/>
</svg>
