<svg width="46" height="47" viewBox="0 0 46 47" fill="none" xmlns="http://www.w3.org/2000/svg">
<path opacity="0.5" fill-rule="evenodd" clip-rule="evenodd" d="M25.0765 9.23559C25.335 8.08969 24.6145 6.95152 23.4676 6.69341C22.3205 6.43529 21.1813 7.15499 20.9229 8.30088C19.9757 12.5024 18.7489 15.1819 16.8993 17.0679C15.0547 18.9488 12.3508 20.2833 7.93396 21.2773C6.78696 21.5354 6.06659 22.6736 6.32496 23.8195C6.58334 24.9653 7.72262 25.685 8.86962 25.4269C13.6723 24.3461 17.2832 22.7543 19.9405 20.0447C22.5927 17.3405 24.0552 13.7654 25.0765 9.23559ZM38.0651 25.4268C39.2121 25.1687 39.9325 24.0304 39.6741 22.8846C39.4158 21.7387 38.2764 21.019 37.1295 21.2772C32.5952 22.2975 29.0168 23.7586 26.3098 26.4082C23.5977 29.063 22.0045 32.6703 20.9225 37.4684C20.6642 38.6143 21.3845 39.7525 22.5315 40.0107C23.6785 40.2687 24.8178 39.5491 25.0762 38.4031C26.0712 33.9905 27.4069 31.2894 29.2896 29.4466C31.1775 27.5987 33.8596 26.3732 38.0651 25.4268Z" fill="white"/>
<path fill-rule="evenodd" clip-rule="evenodd" d="M25.0762 8.30088C24.8178 7.15499 23.6785 6.43529 22.5316 6.69341C21.3845 6.95152 20.6642 8.08969 20.9225 9.23559C21.9438 13.7654 23.4063 17.3405 26.0585 20.0447C28.7159 22.7543 32.3268 24.3461 37.1295 25.4269C38.2764 25.6851 39.4158 24.9653 39.6741 23.8195C39.9325 22.6736 39.2121 21.5354 38.0651 21.2773C33.6482 20.2833 30.9445 18.9488 29.0999 17.0679C27.2501 15.1819 26.0235 12.5024 25.0762 8.30088ZM8.86962 21.2772C7.72262 21.019 6.58334 21.7387 6.32496 22.8846C6.06659 24.0304 6.78696 25.1687 7.93396 25.4268C12.3508 26.4208 15.0547 27.7552 16.8993 29.6361C18.7489 31.5221 19.9757 34.2017 20.9229 38.4031C21.1813 39.549 22.3205 40.2687 23.4676 40.0107C24.6145 39.7525 25.335 38.6143 25.0765 37.4685C24.0552 32.9386 22.5927 29.3636 19.9405 26.6592C17.2832 23.9497 13.6723 22.358 8.86962 21.2772Z" fill="white"/>
</svg>
