<svg width="85" height="85" viewBox="0 0 85 85" fill="none" xmlns="http://www.w3.org/2000/svg">
<circle cx="42.5" cy="42.5" r="42.5" fill="#FFFFFF"/>
<path fill-rule="evenodd" clip-rule="evenodd" d="M35.3008 41.5084C33.3312 39.7674 30.586 39.1343 27.4996 39.1343V31.4344C31.4307 31.4344 36.405 32.2074 40.4006 35.7394C41.4642 36.6796 42.4073 37.7691 43.2203 39.0148V31.4344C47.1515 31.4344 52.1257 32.2074 56.1213 35.7394C60.2034 39.3479 62.5093 45.1527 62.5093 53.564H54.8092C54.8092 46.5078 52.9044 43.1728 51.0215 41.5084C49.0685 39.7821 46.3528 39.145 43.2978 39.1345C45.5559 42.658 46.7884 47.4144 46.7884 53.564H39.0884C39.0884 46.5078 37.1835 43.1728 35.3008 41.5084ZM27.6185 43.7139C27.5638 43.68 27.5206 43.6533 27.4963 43.6379C27.472 43.6533 27.4288 43.68 27.3741 43.7139C27.1743 43.8379 26.8206 44.0572 26.67 44.1629C26.2869 44.4318 25.775 44.8231 25.2617 45.3117C24.2496 46.2751 23.165 47.6812 23.165 49.3192C23.165 51.6653 25.1042 53.5674 27.4963 53.5674C29.8884 53.5674 31.8276 51.6653 31.8276 49.3192C31.8276 47.6812 30.7429 46.2751 29.7309 45.3117C29.2176 44.8231 28.7057 44.4318 28.3226 44.1629C28.172 44.0572 27.8183 43.8379 27.6185 43.7139Z" fill="#010104"/>
</svg>
