<svg width="40" height="41" viewBox="0 0 40 41" fill="none" xmlns="http://www.w3.org/2000/svg">
<path fill-rule="evenodd" clip-rule="evenodd" d="M20.253 5.79321C21.2572 5.79321 22.0712 6.60905 22.0712 7.61544V14.0963C22.1094 14.1062 22.1475 14.1164 22.1854 14.127L26.3274 6.93689L27.552 7.64551C28.4215 8.14872 28.7195 9.26318 28.2175 10.1347L24.9839 15.7477C25.0118 15.7752 25.0395 15.8029 25.0668 15.8307L32.2426 11.6786L32.9497 12.9061C33.4518 13.7776 33.1538 14.892 32.2842 15.3952L26.6852 18.6351C26.6959 18.6738 26.7063 18.7126 26.7163 18.7517H35.0001V20.1689C35.0001 21.1753 34.1861 21.9911 33.1819 21.9911H26.7163C26.7065 22.0295 26.6963 22.0678 26.6857 22.1058L33.8588 26.2564L33.1517 27.4839C32.6496 28.3554 31.5376 28.654 30.668 28.1509L25.0681 24.9106C25.0406 24.9387 25.0129 24.9665 24.9849 24.994L29.1275 32.185L27.9029 32.8937C27.0333 33.3969 25.9213 33.0982 25.4192 32.2267L22.1866 26.6154C22.1483 26.626 22.1098 26.6363 22.0712 26.6463V34.9488H20.6571C19.6529 34.9488 18.8389 34.133 18.8389 33.1265V26.6462C18.8003 26.6362 18.7618 26.6259 18.7235 26.6153L14.5812 33.8061L13.3565 33.0974C12.4868 32.5943 12.1889 31.4798 12.691 30.6082L15.9254 24.9936C15.8972 24.9659 15.8692 24.9378 15.8415 24.9096L8.66525 29.062L7.95815 27.8344C7.45609 26.9629 7.75405 25.8485 8.62367 25.3453L14.2245 22.1045C14.2142 22.0668 14.2041 22.029 14.1944 21.9911H5.90918V20.5739C5.90918 19.5675 6.72321 18.7517 7.72736 18.7517H14.1944C14.2043 18.7131 14.2145 18.6747 14.2251 18.6364L7.0491 14.4841L7.75617 13.2568C8.25824 12.3852 9.37018 12.0865 10.2398 12.5897L15.8428 15.8317C15.8704 15.8037 15.8982 15.7757 15.9263 15.7481L11.7827 8.55541L13.0075 7.84678C13.8771 7.34358 14.9891 7.64219 15.4911 8.51375L18.7248 14.1271C18.7626 14.1166 18.8007 14.1064 18.8389 14.0965V5.79321H20.253ZM23.3155 21.8818L23.1936 22.0934C22.9307 22.5124 22.5748 22.8668 22.1549 23.1275L21.9821 23.2274C21.5407 23.4649 21.0379 23.6026 20.5037 23.6105H20.4069C18.644 23.5846 17.223 22.1443 17.223 20.3714C17.223 18.5822 18.6701 17.1318 20.4554 17.1318C21.0115 17.1318 21.5348 17.2726 21.9918 17.5205L22.1455 17.6094C22.5788 17.8764 22.9446 18.2429 23.211 18.6772L23.3 18.8318C23.5373 19.2712 23.6761 19.7718 23.687 20.3038V20.4389C23.6764 20.9593 23.5433 21.4495 23.3155 21.8818Z" fill="#4169E1"/>
</svg>
