<svg width="46" height="47" viewBox="0 0 46 47" fill="none" xmlns="http://www.w3.org/2000/svg">
<path fill-rule="evenodd" clip-rule="evenodd" d="M10.0339 14.3155C10.5801 11.9619 12.941 10.4945 15.3071 11.0379L31.1073 14.6664C33.4734 15.2096 34.9486 17.5581 34.4023 19.9116L30.7545 35.6284C30.2083 37.982 27.8475 39.4494 25.4814 38.906L9.68114 35.2775C7.31511 34.7342 5.83985 32.3857 6.38614 30.0323L10.0339 14.3155ZM15.2449 11.076C15.791 8.72254 18.152 7.25507 20.5179 7.79847L36.3182 11.427C38.6844 11.9703 40.1596 14.3187 39.6133 16.6723L35.9655 32.389C35.4193 34.7426 33.0585 36.2101 30.6924 35.6665L14.8921 32.0381C12.5261 31.4948 11.0508 29.1464 11.5971 26.7928L15.2449 11.076Z" fill="white"/>
</svg>
