<svg width="40" height="41" viewBox="0 0 40 41" fill="none" xmlns="http://www.w3.org/2000/svg">
<path fill-rule="evenodd" clip-rule="evenodd" d="M29.0441 13.165C33.0561 17.9569 32.5043 24.9516 27.929 28.7993C26.0587 30.3721 23.7998 31.1877 21.5028 31.2802C20.7279 31.3115 20.1251 31.9663 20.1563 32.7428C20.1873 33.5195 20.8407 34.1237 21.6156 34.0925C24.505 33.9761 27.3663 32.9466 29.7341 30.9554C35.5544 26.0607 36.156 17.2807 31.1954 11.3558C26.2348 5.43087 17.5029 4.49997 11.6826 9.3946C9.31483 11.3858 7.80633 14.0312 7.19027 16.8628C7.025 17.6222 7.50523 18.372 8.26301 18.5375C9.02068 18.7031 9.76883 18.2219 9.93401 17.4624C10.4238 15.2114 11.6176 13.1235 13.4877 11.5507C18.063 7.70303 25.0321 8.37295 29.0441 13.165ZM23.0327 23.3388C24.5179 22.0898 24.7116 19.8707 23.4655 18.3823C22.2192 16.8938 20.005 16.6996 18.5198 17.9486C17.0347 19.1975 16.841 21.4167 18.0872 22.9052C19.3334 24.3936 21.5476 24.5877 23.0327 23.3388ZM24.2588 24.828C26.5466 23.0526 26.9716 19.6045 25.0389 17.1031C23.1064 14.6019 19.669 14.1511 17.3813 15.9265C16.3241 16.747 15.6703 17.9094 15.4554 19.1775C15.4587 19.2439 15.4575 19.3115 15.4513 19.3796C15.3804 20.1536 14.6969 20.7235 13.9247 20.6525C12.6339 20.5338 11.3328 20.876 10.2655 21.7043C7.97775 23.4797 7.5528 26.9278 9.48537 29.4291C11.418 31.9305 14.8553 32.3812 17.143 30.6058C18.2003 29.7853 18.8541 28.6229 19.0689 27.3548C19.0656 27.2884 19.0668 27.2208 19.0731 27.1526C19.1439 26.3786 19.8274 25.8088 20.5996 25.8798C21.8904 25.9985 23.1915 25.6564 24.2588 24.828ZM21.6406 28.6989C23.1707 28.5963 24.6822 28.0592 25.9783 27.0534C29.5768 24.2607 30.0747 19.0239 27.2594 15.38C24.444 11.7362 19.2606 10.9084 15.6619 13.7011C14.2673 14.7835 13.3346 16.2438 12.8837 17.8334C11.3536 17.936 9.8421 18.4731 8.54607 19.4789C4.94749 22.2717 4.4496 27.5085 7.26497 31.1523C10.0803 34.7962 15.2638 35.6238 18.8624 32.8311C20.257 31.7488 21.1898 30.2885 21.6406 28.6989Z" fill="white"/>
</svg>
