<svg width="52" height="53" viewBox="0 0 52 53" fill="none" xmlns="http://www.w3.org/2000/svg">
<path opacity="0.4" d="M33.1202 14.5074H18.898C16.2797 14.5074 14.1572 16.6299 14.1572 19.2481V33.4703C14.1572 36.0886 16.2797 38.2111 18.898 38.2111H33.1202C35.7384 38.2111 37.8609 36.0886 37.8609 33.4703V19.2481C37.8609 16.6299 35.7384 14.5074 33.1202 14.5074Z" fill="white"/>
<path opacity="0.2" d="M28.9717 18.6548H14.7495C12.1313 18.6548 10.0088 20.7773 10.0088 23.3956V37.6178C10.0088 40.236 12.1313 42.3585 14.7495 42.3585H28.9717C31.59 42.3585 33.7125 40.236 33.7125 37.6178V23.3956C33.7125 20.7773 31.59 18.6548 28.9717 18.6548Z" fill="white"/>
<path d="M37.2686 10.3584H23.0464C20.4282 10.3584 18.3057 12.4809 18.3057 15.0992V29.3214C18.3057 31.9396 20.4282 34.0621 23.0464 34.0621H37.2686C39.8869 34.0621 42.0094 31.9396 42.0094 29.3214V15.0992C42.0094 12.4809 39.8869 10.3584 37.2686 10.3584Z" fill="white"/>
</svg>
