<svg width="40" height="41" viewBox="0 0 40 41" fill="none" xmlns="http://www.w3.org/2000/svg">
<path fill-rule="evenodd" clip-rule="evenodd" d="M10 14.7591C10 9.74099 14.5477 5.79346 19.9991 5.79346C25.4505 5.79346 29.9983 9.74099 29.9983 14.7591C29.9983 19.7772 25.4505 23.7247 19.9991 23.7247C14.5477 23.7247 10 19.7772 10 14.7591ZM12.4336 14.7592C12.4336 10.9622 15.8747 7.97531 19.9995 7.97531C24.1245 7.97531 27.5655 10.9622 27.5655 14.7592C27.5655 18.5563 24.1245 21.5432 19.9995 21.5432C15.8747 21.5432 12.4336 18.5563 12.4336 14.7592ZM10.0017 20.7356C10.0017 20.2129 10.0511 19.7019 10.1456 19.2056C10.9589 23.4733 15.1173 26.6413 20.0008 26.6413C24.8845 26.6413 29.0427 23.4733 29.8561 19.2056C29.9506 19.7019 30 20.2129 30 20.7356C30 25.7539 25.4523 29.7012 20.0008 29.7012C14.5495 29.7012 10.0017 25.7539 10.0017 20.7356ZM10.0017 25.9835C10.0017 25.4608 10.0511 24.9497 10.1456 24.4535C10.9589 28.7212 15.1173 31.8891 20.0008 31.8891C24.8845 31.8891 29.0427 28.7212 29.8561 24.4535C29.9506 24.9497 30 25.4608 30 25.9835C30 31.0017 25.4523 34.9492 20.0008 34.9492C14.5495 34.9492 10.0017 31.0017 10.0017 25.9835Z" fill="#FFFFFF"/>
</svg>
