<svg width="40" height="40" viewBox="0 0 40 40" fill="none" xmlns="http://www.w3.org/2000/svg">
<path d="M28.1819 5.60762H11.8183C8.27863 5.60762 5.40918 8.4133 5.40918 11.8743V27.8743C5.40918 31.3353 8.27863 34.141 11.8183 34.141H28.1819C31.7215 34.141 34.591 31.3353 34.591 27.8743V11.8743C34.591 8.4133 31.7215 5.60762 28.1819 5.60762Z" stroke="#0C0C0F" stroke-width="0.15"/>
<path opacity="0.4" fill-rule="evenodd" clip-rule="evenodd" d="M16.0567 10.8099H13.4015V13.3884H10.7647V15.9679H13.42V13.3891H16.0567V10.8099ZM26.6002 13.3891H23.9973V10.8099H26.6525V13.3884H29.2555V15.9679H26.6002V13.3891ZM23.9954 15.9683H21.3401V18.5474H23.9954V15.9683ZM21.3401 21.1259H23.9954V23.705H21.3401V21.1259ZM18.6855 15.9683H16.0303V18.5474H18.6855V15.9683ZM16.0303 21.1259H18.6855V23.705H16.0303V21.1259ZM10.7461 26.3585H13.4014V23.7788H10.7461V26.3585ZM26.5807 26.3585H29.236V23.7788H26.5807V26.3585ZM16.0364 31.5169H18.6917V28.9375H16.0364V31.5169ZM21.3224 31.5169H23.9776V28.9375H21.3224V31.5169Z" fill="white"/>
<path fill-rule="evenodd" clip-rule="evenodd" d="M18.7113 5.65189H13.4006V8.23103H18.7113V5.65189ZM8.12899 8.23111H13.3997V13.389H8.12982V15.9682H5.47452V13.3887L8.12982 13.389L8.12899 8.23111ZM31.9234 8.23111H26.6526V13.389H31.8897V15.9682H34.545V13.3887H31.9234V8.23111ZM26.598 18.57H29.2334V21.1496H26.598V18.57ZM13.4397 18.5484H10.7845V21.1986H13.4397V18.5484ZM10.7836 15.9686H5.48695V18.5477H10.7836V15.9686ZM34.5308 15.9686H29.2342V18.5477H34.5308V15.9686ZM18.7113 8.23103L16.0551 8.23111V10.8103H18.7105L18.7113 8.23103ZM23.9973 8.23111H21.3419V10.8102L18.7105 10.8103L18.7106 13.3894H21.3658V10.8103H23.9973V8.23111ZM21.3392 18.547H18.6839V21.1262H21.3392V18.547ZM26.6517 5.65189H21.3411L21.3419 8.23111L26.6517 8.23103V5.65189ZM13.3803 31.5172H8.10947V26.3588H13.3803L16.0356 26.3587V28.938H13.3803V31.5172L18.6908 31.517V34.0964H13.3803V31.5172ZM26.5798 31.5172H31.903V26.3588H26.5791L23.9246 26.3594V28.938H26.5791L26.5798 31.5172L21.3223 31.517V34.0964H26.5798V31.5172ZM5.4541 26.3588H8.10947L8.1094 23.7791H5.4541V26.3588ZM31.8693 26.3588H34.5246V23.7791H31.8693V26.3588ZM5.4683 23.779H10.7649V21.1996H5.4683V23.779ZM29.2351 23.779H34.5122V21.1503H29.2351V23.779ZM18.6901 28.938H21.3455V26.3587H18.6901V28.938Z" fill="white"/>
</svg>
