<svg width="99" height="41" viewBox="0 0 99 41" fill="none" xmlns="http://www.w3.org/2000/svg">
<path d="M13 17C13 15.8954 13.8954 15 15 15H86C93.1797 15 99 20.8203 99 28C99 35.1797 93.1797 41 86 41H27C19.268 41 13 34.732 13 27V17Z" fill="#A8BFFF"/>
<path d="M29.614 32.5892C28.144 32.5892 26.912 32.0992 25.946 31.1332C24.98 30.1532 24.49 28.9492 24.49 27.5072C24.49 26.0652 24.98 24.8612 25.946 23.8952C26.912 22.9152 28.144 22.4252 29.614 22.4252C31.392 22.4252 32.988 23.3212 33.828 24.7632L32.428 25.5752C31.91 24.6092 30.846 23.9932 29.614 23.9932C28.564 23.9932 27.724 24.3292 27.066 24.9872C26.422 25.6452 26.1 26.4852 26.1 27.5072C26.1 28.5292 26.422 29.3692 27.066 30.0272C27.724 30.6852 28.564 31.0212 29.614 31.0212C30.846 31.0212 31.924 30.4052 32.428 29.4392L33.828 30.2372C33.422 30.9512 32.834 31.5252 32.078 31.9592C31.336 32.3792 30.51 32.5892 29.614 32.5892ZM36.6479 25.4072V26.5832C37.0259 25.7152 37.7539 25.2812 38.8039 25.2812V26.9192C38.2299 26.8772 37.7259 27.0172 37.2919 27.3392C36.8579 27.6472 36.6479 28.1652 36.6479 28.8792V32.4072H35.1359V25.4072H36.6479ZM41.3491 24.0772C40.9711 24.4552 40.3831 24.4552 39.9911 24.0772C39.6131 23.6852 39.6131 23.0972 39.9911 22.7192C40.3691 22.3272 40.9851 22.3272 41.3631 22.7192C41.7411 23.0972 41.7411 23.6852 41.3491 24.0772ZM41.4331 32.4072H39.9211V25.4072H41.4331V32.4072ZM44.5056 27.3392C44.5056 27.8012 45.0936 28.0392 45.8216 28.2492C46.8996 28.4872 48.2996 28.9352 48.2716 30.4332C48.2716 31.1052 48.0056 31.6372 47.4876 32.0152C46.9696 32.3932 46.3256 32.5892 45.5416 32.5892C44.1556 32.5892 43.1336 31.9732 42.6856 30.9512L43.9876 30.1952C44.2256 30.8672 44.7436 31.2032 45.5416 31.2032C46.3396 31.2032 46.7316 30.9372 46.7316 30.4192C46.7316 29.9712 46.1436 29.7052 45.4016 29.5232C44.3516 29.2572 42.9376 28.8372 42.9656 27.3672C42.9656 26.7232 43.2036 26.2052 43.6936 25.8132C44.1836 25.4212 44.7996 25.2252 45.5276 25.2252C46.6896 25.2252 47.6276 25.7712 48.1176 26.6812L46.8436 27.3952C46.6056 26.8632 46.1576 26.5972 45.5276 26.5972C44.9536 26.5972 44.5056 26.8492 44.5056 27.3392ZM53.2007 25.2252C54.8107 25.2252 55.8887 26.3172 55.8887 28.1092V32.4072H54.3767V28.2632C54.3767 27.2132 53.7747 26.6392 52.8087 26.6392C51.7447 26.6392 51.0307 27.2972 51.0307 28.6552V32.4072H49.5187V22.6072H51.0307V26.3032C51.4927 25.5892 52.2067 25.2252 53.2007 25.2252ZM61.1148 22.6072H64.7268C65.6508 22.6072 66.4208 22.9152 67.0368 23.5312C67.6668 24.1472 67.9748 24.9172 67.9748 25.8272C67.9748 26.7372 67.6668 27.4932 67.0368 28.1232C66.4208 28.7392 65.6508 29.0472 64.7268 29.0472H62.7248V32.4072H61.1148V22.6072ZM62.7248 27.5352H64.7268C65.6788 27.5352 66.3648 26.8212 66.3648 25.8272C66.3648 24.8332 65.6788 24.1192 64.7268 24.1192H62.7248V27.5352ZM74.3264 26.4012V25.4072H75.8384V32.4072H74.3264V31.3992C73.7524 32.1972 72.9404 32.5892 71.8764 32.5892C70.9104 32.5892 70.0984 32.2392 69.4124 31.5252C68.7264 30.8112 68.3904 29.9292 68.3904 28.9072C68.3904 27.8712 68.7264 27.0032 69.4124 26.2892C70.0984 25.5752 70.9104 25.2252 71.8764 25.2252C72.9404 25.2252 73.7524 25.6172 74.3264 26.4012ZM70.5324 30.5172C70.9524 30.9372 71.4844 31.1472 72.1144 31.1472C72.7444 31.1472 73.2764 30.9372 73.6964 30.5172C74.1164 30.0832 74.3264 29.5512 74.3264 28.9072C74.3264 28.2632 74.1164 27.7312 73.6964 27.3112C73.2764 26.8772 72.7444 26.6672 72.1144 26.6672C71.4844 26.6672 70.9524 26.8772 70.5324 27.3112C70.1124 27.7312 69.9024 28.2632 69.9024 28.9072C69.9024 29.5512 70.1124 30.0832 70.5324 30.5172ZM82.3188 29.1592V25.4072H83.8308V32.4072H82.3188V31.5112C81.8568 32.2252 81.1428 32.5892 80.1488 32.5892C78.5388 32.5892 77.4608 31.4972 77.4608 29.7052V25.4072H78.9728V29.5512C78.9728 30.6012 79.5748 31.1752 80.5408 31.1752C81.6048 31.1752 82.3188 30.5172 82.3188 29.1592ZM87.1108 32.4072H85.5988V22.1872H87.1108V32.4072Z" fill="#010104"/>
<path d="M4.43401 15.2117C4.60868 15.3452 4.87763 15.5021 5.21345 15.5C6.02903 15.4947 6.58661 14.9384 6.93961 14.3988C7.30215 13.8445 7.56997 13.1323 7.77643 12.4399C7.98586 11.7376 8.14759 11.0011 8.27777 10.3729C8.367 9.93513 8.52601 9.15761 8.58857 8.93463C8.69174 8.56689 8.75844 8.49249 8.78437 8.46844C8.81413 8.44084 8.9033 8.37603 9.2949 8.28992L9.31003 8.28659L9.31009 8.28658C11.1437 7.88339 12.5848 7.5665 13.567 7.2275C14.0577 7.05812 14.5012 6.86169 14.836 6.60374C15.1891 6.33168 15.476 5.94465 15.499 5.42418C15.5141 5.08143 15.3577 4.80609 15.2286 4.63222C15.0909 4.44685 14.9107 4.27821 14.7225 4.12753C14.3436 3.82419 13.8263 3.51079 13.2387 3.20328C12.0556 2.58421 10.4748 1.93128 8.85216 1.37978C7.23047 0.828599 5.53397 0.367459 4.11865 0.144725C3.41344 0.0337445 2.74955 -0.0227376 2.18676 0.00857479C1.66206 0.0377677 1.06025 0.149965 0.647061 0.533651C0.220827 0.929448 0.0761632 1.53229 0.0253266 2.05972C-0.0289344 2.62267 0.00763941 3.28842 0.100275 3.99467C0.286245 5.41252 0.715504 7.11848 1.24131 8.75199C1.76757 10.3869 2.4018 11.984 3.01187 13.1843C3.31501 13.7807 3.62591 14.3065 3.92948 14.694C4.08044 14.8867 4.24888 15.0702 4.43401 15.2117Z" fill="#A8BFFF"/>
</svg>
