<svg width="28" height="28" viewBox="0 0 28 28" fill="none" xmlns="http://www.w3.org/2000/svg">
<path d="M25.6055 10.5243C25.4955 10.2576 25.3087 10.0296 25.0687 9.86945C24.8287 9.70927 24.5465 9.62412 24.258 9.62483H18.0747L15.34 3.2385C15.2276 2.97586 15.0405 2.752 14.802 2.59469C14.5635 2.43737 14.2841 2.35352 13.9984 2.35352C13.7126 2.35352 13.4332 2.43737 13.1947 2.59469C12.9562 2.752 12.7692 2.97586 12.6567 3.2385L9.92319 9.62483H3.73986C3.45139 9.62478 3.16938 9.71028 2.92951 9.87052C2.68964 10.0308 2.50268 10.2585 2.39227 10.525C2.28187 10.7916 2.25299 11.0848 2.30929 11.3677C2.36558 11.6507 2.50452 11.9105 2.70852 12.1145L7.19669 16.6015L5.31602 24.1288C5.24682 24.4061 5.26059 24.6975 5.35563 24.967C5.45066 25.2365 5.62277 25.4721 5.85058 25.6446C6.07838 25.8171 6.35184 25.9189 6.637 25.9373C6.92215 25.9557 7.20643 25.8899 7.45452 25.7482L13.9995 22.0078L20.5457 25.7493C20.7939 25.8909 21.0781 25.9564 21.3632 25.9378C21.6483 25.9192 21.9217 25.8173 22.1493 25.6447C22.377 25.4721 22.5489 25.2364 22.6438 24.9669C22.7387 24.6974 22.7523 24.406 22.683 24.1288L20.8024 16.6015L25.2894 12.1145C25.494 11.9108 25.6334 11.6508 25.6897 11.3676C25.746 11.0844 25.7167 10.7908 25.6055 10.5243Z" fill="#4169E1"/>
</svg>
