<svg width="100" height="100" viewBox="0 0 100 100" fill="none" xmlns="http://www.w3.org/2000/svg">
<circle cx="50" cy="50" r="50" fill="#4169E1"/>
<path fill-rule="evenodd" clip-rule="evenodd" d="M41.5302 48.8335C39.2131 46.7853 35.9835 46.0405 32.3524 46.0405V36.9817C36.9773 36.9817 42.8293 37.8911 47.53 42.0464C48.7814 43.1526 49.8908 44.4343 50.8474 45.8999V36.9817C55.4722 36.9817 61.3243 37.8911 66.025 42.0464C70.8275 46.2917 73.5402 53.1209 73.5402 63.0165H64.4813C64.4813 54.7151 62.2404 50.7916 60.0252 48.8335C57.7276 46.8025 54.5326 46.0531 50.9385 46.0406C53.5951 50.186 55.0451 55.7817 55.0451 63.0165H45.9863C45.9863 54.7151 43.7453 50.7916 41.5302 48.8335ZM32.4923 51.4282C32.4279 51.3883 32.3771 51.3569 32.3485 51.3388C32.32 51.3569 32.2691 51.3883 32.2048 51.4282C31.9697 51.574 31.5536 51.8321 31.3765 51.9565C30.9257 52.2728 30.3235 52.7331 29.7196 53.308C28.5289 54.4414 27.2529 56.0956 27.2529 58.0226C27.2529 60.7828 29.5343 63.0206 32.3485 63.0206C35.1628 63.0206 37.4442 60.7828 37.4442 58.0226C37.4442 56.0956 36.1681 54.4414 34.9775 53.308C34.3736 52.7331 33.7714 52.2728 33.3207 51.9565C33.1435 51.8321 32.7273 51.574 32.4923 51.4282Z" fill="#010104"/>
</svg>
