<svg width="62" height="41" viewBox="0 0 62 41" fill="none" xmlns="http://www.w3.org/2000/svg">
<path d="M13 17C13 15.8954 13.8954 15 15 15H49C56.1797 15 62 20.8203 62 28C62 35.1797 56.1797 41 49 41H27C19.268 41 13 34.732 13 27V17Z" fill="#E8E8E8"/>
<path d="M33.1 32.4077H31.364L30.678 30.4337H26.506L25.82 32.4077H24.07L27.626 22.6077H29.558L33.1 32.4077ZM28.592 24.4977L27.038 28.9217H30.146L28.592 24.4977ZM35.5678 32.4077H34.0558V22.1877H35.5678V32.4077ZM44.0854 29.5517H38.5134C38.7374 30.6157 39.5914 31.2037 40.7534 31.2037C41.5514 31.2037 42.1534 30.9097 42.5594 30.3357L43.8054 31.0637C43.1194 32.0857 42.0974 32.5897 40.7394 32.5897C39.6054 32.5897 38.6814 32.2397 37.9814 31.5537C37.2814 30.8537 36.9314 29.9717 36.9314 28.9077C36.9314 27.8577 37.2814 26.9897 37.9674 26.2897C38.6534 25.5757 39.5494 25.2257 40.6274 25.2257C41.6494 25.2257 42.4894 25.5897 43.1474 26.3037C43.8054 27.0177 44.1414 27.8997 44.1414 28.9217C44.1414 29.0757 44.1274 29.2857 44.0854 29.5517ZM38.4994 28.3197H42.6154C42.4054 27.1857 41.6074 26.5977 40.6134 26.5977C39.4934 26.5977 38.7094 27.2557 38.4994 28.3197ZM48.7564 28.8237L51.3744 32.4077H49.6244L47.8884 30.0137L46.1384 32.4077H44.3744L47.0064 28.8097L44.5144 25.4077H46.2644L47.8744 27.6197L49.4844 25.4077H51.2484L48.7564 28.8237Z" fill="#040407"/>
<path d="M4.43401 15.2117C4.60868 15.3452 4.87763 15.5021 5.21345 15.5C6.02903 15.4947 6.58661 14.9384 6.93961 14.3988C7.30215 13.8445 7.56997 13.1323 7.77643 12.4399C7.98586 11.7376 8.14759 11.0011 8.27777 10.3729C8.367 9.93513 8.52601 9.15761 8.58857 8.93463C8.69174 8.56689 8.75844 8.49249 8.78437 8.46844C8.81413 8.44084 8.9033 8.37603 9.2949 8.28992L9.31003 8.28659L9.31009 8.28658C11.1437 7.88339 12.5848 7.5665 13.567 7.2275C14.0577 7.05812 14.5012 6.86169 14.836 6.60374C15.1891 6.33168 15.476 5.94465 15.499 5.42418C15.5141 5.08143 15.3577 4.80609 15.2286 4.63222C15.0909 4.44685 14.9107 4.27821 14.7225 4.12753C14.3436 3.82419 13.8263 3.51079 13.2387 3.20328C12.0556 2.58421 10.4748 1.93128 8.85216 1.37978C7.23047 0.828599 5.53397 0.367459 4.11865 0.144725C3.41344 0.0337445 2.74955 -0.0227376 2.18676 0.00857479C1.66206 0.0377677 1.06025 0.149965 0.647061 0.533651C0.220827 0.929448 0.0761632 1.53229 0.0253266 2.05972C-0.0289344 2.62267 0.00763941 3.28842 0.100275 3.99467C0.286245 5.41252 0.715504 7.11848 1.24131 8.75199C1.76757 10.3869 2.4018 11.984 3.01187 13.1843C3.31501 13.7807 3.62591 14.3065 3.92948 14.694C4.08044 14.8867 4.24888 15.0702 4.43401 15.2117Z" fill="#E8E8E8"/>
</svg>
