<svg width="72" height="41" viewBox="0 0 72 41" fill="none" xmlns="http://www.w3.org/2000/svg">
<path d="M13 17C13 15.8954 13.8954 15 15 15H59C66.1797 15 72 20.8203 72 28C72 35.1797 66.1797 41 59 41H27C19.268 41 13 34.732 13 27V17Z" fill="#DCE8FF"/>
<path d="M28.242 32.5897C26.352 32.5897 24.98 31.6797 24.462 30.1817L25.848 29.3697C26.24 30.4757 27.052 31.0217 28.284 31.0217C29.502 31.0217 30.104 30.5037 30.104 29.7337C30.104 29.3277 29.936 29.0337 29.614 28.8237C29.292 28.6137 28.704 28.3757 27.878 28.1237C26.94 27.8437 26.478 27.6617 25.82 27.2277C25.19 26.7797 24.868 26.1357 24.868 25.2537C24.868 24.3857 25.176 23.6997 25.792 23.1957C26.408 22.6777 27.15 22.4257 28.018 22.4257C29.586 22.4257 30.804 23.2377 31.434 24.5817L30.076 25.3657C29.67 24.4557 28.984 23.9937 28.018 23.9937C27.08 23.9937 26.478 24.4697 26.478 25.2117C26.478 25.9397 26.954 26.2757 28.452 26.7377C28.83 26.8637 29.096 26.9477 29.264 27.0177C29.446 27.0737 29.684 27.1717 29.992 27.2977C30.314 27.4237 30.552 27.5637 30.706 27.6897C31.224 28.0957 31.784 28.7677 31.714 29.7057C31.714 30.5877 31.392 31.3017 30.748 31.8197C30.118 32.3377 29.278 32.5897 28.242 32.5897ZM34.5288 32.4077H33.0168V22.1877H34.5288V32.4077ZM41.8283 26.4017V25.4077H43.3403V32.4077H41.8283V31.3997C41.2543 32.1977 40.4423 32.5897 39.3783 32.5897C38.4123 32.5897 37.6003 32.2397 36.9143 31.5257C36.2283 30.8117 35.8923 29.9297 35.8923 28.9077C35.8923 27.8717 36.2283 27.0037 36.9143 26.2897C37.6003 25.5757 38.4123 25.2257 39.3783 25.2257C40.4423 25.2257 41.2543 25.6177 41.8283 26.4017ZM38.0343 30.5177C38.4543 30.9377 38.9863 31.1477 39.6163 31.1477C40.2463 31.1477 40.7783 30.9377 41.1983 30.5177C41.6183 30.0837 41.8283 29.5517 41.8283 28.9077C41.8283 28.2637 41.6183 27.7317 41.1983 27.3117C40.7783 26.8777 40.2463 26.6677 39.6163 26.6677C38.9863 26.6677 38.4543 26.8777 38.0343 27.3117C37.6143 27.7317 37.4043 28.2637 37.4043 28.9077C37.4043 29.5517 37.6143 30.0837 38.0343 30.5177ZM48.4067 32.5897C47.3567 32.5897 46.4747 32.2397 45.7607 31.5257C45.0607 30.8117 44.7107 29.9437 44.7107 28.9077C44.7107 27.8577 45.0607 26.9897 45.7607 26.2897C46.4747 25.5757 47.3567 25.2257 48.4067 25.2257C49.7647 25.2257 50.9687 25.9257 51.5287 27.0317L50.2267 27.7877C49.9047 27.1157 49.2327 26.7097 48.3927 26.7097C47.7767 26.7097 47.2587 26.9197 46.8387 27.3397C46.4327 27.7597 46.2227 28.2777 46.2227 28.9077C46.2227 29.5377 46.4327 30.0557 46.8387 30.4757C47.2587 30.8957 47.7767 31.1057 48.3927 31.1057C49.2187 31.1057 49.9187 30.6857 50.2547 30.0277L51.5567 30.7697C50.9547 31.8897 49.7647 32.5897 48.4067 32.5897ZM55.6456 28.8377L58.8376 32.4077H57.0316L54.1616 29.1737V32.4077H52.6496V22.6077H54.1616V28.5017L56.8776 25.4077H58.7256L55.6456 28.8377Z" fill="#040407"/>
<path d="M4.43401 15.2117C4.60868 15.3452 4.87763 15.5021 5.21345 15.5C6.02903 15.4947 6.58661 14.9384 6.93961 14.3988C7.30215 13.8445 7.56997 13.1323 7.77643 12.4399C7.98586 11.7376 8.14759 11.0011 8.27777 10.3729C8.367 9.93513 8.52601 9.15761 8.58857 8.93463C8.69174 8.56689 8.75844 8.49249 8.78437 8.46844C8.81413 8.44084 8.9033 8.37603 9.2949 8.28992L9.31003 8.28659L9.31009 8.28658C11.1437 7.88339 12.5848 7.5665 13.567 7.2275C14.0577 7.05812 14.5012 6.86169 14.836 6.60374C15.1891 6.33168 15.476 5.94465 15.499 5.42418C15.5141 5.08143 15.3577 4.80609 15.2286 4.63222C15.0909 4.44685 14.9107 4.27821 14.7225 4.12753C14.3436 3.82419 13.8263 3.51079 13.2387 3.20328C12.0556 2.58421 10.4748 1.93128 8.85216 1.37978C7.23047 0.828599 5.53397 0.367459 4.11865 0.144725C3.41344 0.0337445 2.74955 -0.0227376 2.18676 0.00857479C1.66206 0.0377677 1.06025 0.149965 0.647061 0.533651C0.220827 0.929448 0.0761632 1.53229 0.0253266 2.05972C-0.0289344 2.62267 0.00763941 3.28842 0.100275 3.99467C0.286245 5.41252 0.715504 7.11848 1.24131 8.75199C1.76757 10.3869 2.4018 11.984 3.01187 13.1843C3.31501 13.7807 3.62591 14.3065 3.92948 14.694C4.08044 14.8867 4.24888 15.0702 4.43401 15.2117Z" fill="#DCE8FF"/>
</svg>
