<svg width="40" height="40" viewBox="0 0 40 40" fill="none" xmlns="http://www.w3.org/2000/svg">
<path opacity="0.6" d="M26.6667 28.3335L15.0001 28.3335" stroke="#FFFFFF" stroke-width="2" stroke-linecap="round" stroke-linejoin="round"/>
<path opacity="0.6" d="M26.6667 21.667L21.6667 21.667" stroke="#FFFFFF" stroke-width="2" stroke-linecap="round" stroke-linejoin="round"/>
<path d="M34.1667 23.3337C34.1667 29.6191 34.1667 32.7617 32.0921 34.7144C30.0174 36.667 26.6783 36.667 20.0001 36.667H18.7122C13.2769 36.667 10.5592 36.667 8.67186 35.3373C8.13111 34.9563 7.65105 34.5045 7.24625 33.9955C5.83341 32.2192 5.83341 29.6614 5.83341 24.5458V20.3034C5.83341 15.3647 5.83341 12.8954 6.61497 10.9232C7.87144 7.7527 10.5286 5.2518 13.8973 4.06925C15.9928 3.33366 18.6164 3.33366 23.8637 3.33366C26.8622 3.33366 28.3614 3.33366 29.5588 3.75399C31.4838 4.42974 33.0022 5.85882 33.7201 7.67056C34.1667 8.79753 34.1667 10.2086 34.1667 13.0306V23.3337Z" stroke="#FFFFFF" stroke-width="2" stroke-linejoin="round"/>
<path d="M5.83333 20C5.83333 16.9318 8.32064 14.4444 11.3889 14.4444C12.4985 14.4444 13.8067 14.6389 14.8856 14.3498C15.8442 14.0929 16.5929 13.3442 16.8498 12.3856C17.1389 11.3067 16.9444 9.99853 16.9444 8.88889C16.9444 5.82064 19.4318 3.33333 22.5 3.33333" stroke="#FFFFFF" stroke-width="2" stroke-linecap="round" stroke-linejoin="round"/>
</svg>
