<svg width="40" height="40" viewBox="0 0 40 40" fill="none" xmlns="http://www.w3.org/2000/svg">
<path opacity="0.4" d="M18.3337 25.3507C17.4012 25.1993 16.5486 24.7937 15.8775 24.1226M15.8775 24.1226C15.2065 23.4516 14.8008 22.5989 14.6494 21.6665M15.8775 24.1226L6.66699 33.3332" stroke="#CFFE25" stroke-width="2" stroke-linecap="round"/>
<path opacity="0.4" d="M20.0002 10C21.1874 8.24849 22.7954 5.30201 25.1777 5.0183C26.804 4.82464 28.1512 6.17186 30.8456 8.8663L31.1339 9.15462C33.8284 11.8491 35.1756 13.1963 34.9819 14.8225C34.6982 17.2048 31.7517 18.8128 30.0002 20" stroke="#CFFE25" stroke-width="2" stroke-linejoin="round"/>
<path d="M22.1422 32.2745L9.70429 34.5843C7.31863 35.0273 6.1258 35.2488 5.43862 34.5616C4.75144 33.8744 4.97295 32.6815 5.41596 30.2957L7.72562 17.8572C8.09599 15.8627 8.28117 14.8654 8.93861 14.2628C9.59606 13.6603 10.7984 13.5427 13.2031 13.3075C15.5207 13.0808 17.7141 12.2863 20.0002 10L30.0002 20.0009C27.7141 22.2872 26.9191 24.4791 26.6921 26.7968C26.4565 29.2018 26.3387 30.4043 25.7362 31.0616C25.1337 31.7189 24.1365 31.9041 22.1422 32.2745Z" stroke="#CFFE25" stroke-width="2" stroke-linejoin="round"/>
</svg>
