<svg width="51" height="51" viewBox="0 0 51 51" fill="none" xmlns="http://www.w3.org/2000/svg">
<path d="M26.5609 37.2512C26.2634 37.57 25.8597 37.7187 25.4347 37.7187C25.0309 37.7187 24.6272 37.57 24.3084 37.2512L20.9297 33.8725C22.1834 33.7237 23.3947 33.4262 24.5209 32.9587L26.5609 34.9987C27.1984 35.615 27.1984 36.635 26.5609 37.2512Z" fill="#4169E1"/>
<path d="M33.9139 33.8516C33.6164 34.1704 33.1914 34.3404 32.7877 34.3404C32.3839 34.3404 31.9802 34.1704 31.6614 33.8729L28.4102 30.6854C29.2389 30.0266 30.0039 29.2616 30.6627 28.4116L33.8927 31.5991C34.5302 32.2154 34.5302 33.2354 33.9139 33.8516Z" fill="#4169E1"/>
<path d="M37.189 26.6259C36.8915 26.9446 36.4877 27.0934 36.0627 27.0934C35.659 27.0934 35.2552 26.9446 34.9365 26.6259L32.8965 24.5859C33.364 23.4596 33.6615 22.2484 33.8102 20.9946L37.189 24.3734C37.8265 24.9896 37.8265 26.0096 37.189 26.6259Z" fill="#4169E1"/>
<path d="M33.7887 17.1487C32.8325 9.86 26.6063 4.25 19.0625 4.25C10.8388 4.25 4.1875 10.9013 4.1875 19.125C4.1875 26.6688 9.7975 32.895 17.0862 33.8512C17.7237 33.9575 18.3825 34 19.0625 34C19.7 34 20.3162 33.9575 20.9325 33.8725L20.125 33.065C19.5087 32.4275 19.5087 31.4287 20.125 30.8125C20.7412 30.175 21.7612 30.175 22.3775 30.8125L24.5238 32.9587C25.9475 32.4062 27.2437 31.6412 28.4125 30.685L26.5 28.7938C25.8838 28.1775 25.8625 27.1787 26.5 26.5413C27.1162 25.925 28.115 25.9037 28.7525 26.52L30.665 28.4112C31.6 27.2638 32.365 25.9887 32.8962 24.5863L30.75 22.44C30.1338 21.8025 30.1338 20.8037 30.75 20.1875C31.3662 19.55 32.3862 19.55 33.0025 20.1875L33.81 20.995C33.895 20.3787 33.9375 19.7625 33.9375 19.125C33.9375 18.445 33.895 17.7862 33.7887 17.1487Z" fill="#4169E1"/>
<path opacity="0.4" d="M46.6833 31.8752C46.6833 40.0989 40.032 46.7502 31.8083 46.7502C24.2645 46.7502 18.0383 41.1402 17.082 33.8514C17.7195 33.9577 18.3783 34.0002 19.0583 34.0002C19.6958 34.0002 20.312 33.9577 20.9283 33.8727L24.307 37.2514C24.6258 37.5702 25.0295 37.7189 25.4333 37.7189C25.8583 37.7189 26.262 37.5702 26.5595 37.2514C27.197 36.6352 27.197 35.6152 26.5595 34.9989L24.5195 32.9589C25.9433 32.4064 27.2395 31.6414 28.4083 30.6852L31.6595 33.8727C31.9783 34.1702 32.382 34.3402 32.7858 34.3402C33.1895 34.3402 33.6145 34.1702 33.912 33.8514C34.5283 33.2352 34.5283 32.2152 33.8908 31.5989L30.6608 28.4114C31.5958 27.2639 32.3608 25.9889 32.892 24.5864L34.932 26.6264C35.2508 26.9452 35.6545 27.0939 36.0583 27.0939C36.4833 27.0939 36.887 26.9452 37.1845 26.6264C37.822 26.0102 37.822 24.9902 37.1845 24.3739L33.8058 20.9952C33.8908 20.3789 33.9333 19.7627 33.9333 19.1252C33.9333 18.4452 33.8908 17.7864 33.7845 17.1489C41.0733 18.1052 46.6833 24.3314 46.6833 31.8752Z" fill="#4169E1"/>
</svg>
