<svg width="52" height="53" viewBox="0 0 52 53" fill="none" xmlns="http://www.w3.org/2000/svg">
<path opacity="0.4" d="M34.403 12.375H17.5949C14.5006 12.375 11.9922 14.8748 11.9922 17.9585V34.7092C11.9922 37.7929 14.5006 40.2927 17.5949 40.2927H34.403C37.4972 40.2927 40.0057 37.7929 40.0057 34.7092V17.9585C40.0057 14.8748 37.4972 12.375 34.403 12.375Z" fill="#4169E1"/>
<path opacity="0.2" d="M29.5026 17.2603H12.6945C9.60021 17.2603 7.0918 19.7601 7.0918 22.8438V39.5944C7.0918 42.6781 9.60021 45.1779 12.6945 45.1779H29.5026C32.5968 45.1779 35.1053 42.6781 35.1053 39.5944V22.8438C35.1053 19.7601 32.5968 17.2603 29.5026 17.2603Z" fill="#4169E1"/>
<path d="M39.3073 7.48901H22.4992C19.4049 7.48901 16.8965 9.98885 16.8965 13.0726V29.8232C16.8965 32.9069 19.4049 35.4067 22.4992 35.4067H39.3073C42.4015 35.4067 44.9099 32.9069 44.9099 29.8232V13.0726C44.9099 9.98885 42.4015 7.48901 39.3073 7.48901Z" fill="#4169E1"/>
</svg>
