<svg width="24" height="24" viewBox="0 0 24 24" fill="none" xmlns="http://www.w3.org/2000/svg">
<path d="M12.5805 2.68627C12.2328 2.43791 11.7657 2.43791 11.418 2.68627L1.91797 9.47198L3.08045 11.0994L11.9992 4.7289L20.918 11.0994L22.0805 9.47198L12.5805 2.68627ZM19.5805 12.6863L12.5805 7.68627C12.2328 7.43791 11.7657 7.43791 11.418 7.68627L4.41797 12.6863C4.15518 12.874 3.99921 13.177 3.99921 13.5V20C3.99921 20.5523 4.44692 21 4.99921 21H18.9992C19.5515 21 19.9992 20.5523 19.9992 20V13.5C19.9992 13.177 19.8433 12.874 19.5805 12.6863ZM5.99921 19V14.0146L11.9992 9.7289L17.9992 14.0146V19H5.99921Z" fill="#010104"/>
</svg>
