<svg width="61" height="61" viewBox="0 0 61 61" fill="none" xmlns="http://www.w3.org/2000/svg">
<path d="M33.7587 37.625L11.1838 37.6259C6.63375 37.626 3.73356 32.7512 5.9334 28.7511L11.758 18.1508L17.2076 8.2256C19.4824 4.10052 25.4324 4.10028 27.7076 8.2252L33.183 18.15L35.8082 22.9249L39.0084 28.7498C41.2086 32.7497 38.3087 37.6248 33.7587 37.625Z" fill="#FFFFFF"/>
<path opacity="0.4" d="M55.1803 38.8732C55.1807 47.8482 47.906 55.1235 38.931 55.1239C29.956 55.1242 22.6807 47.8495 22.6803 38.8745C22.6803 38.4495 22.7053 38.0495 22.7303 37.6245L33.7553 37.6241C38.3053 37.6239 41.2051 32.7488 39.0049 28.7489L35.8047 22.924C36.8047 22.7239 37.8547 22.6239 38.9297 22.6239C47.9047 22.6235 55.18 29.8982 55.1803 38.8732Z" fill="#FFFFFF"/>
</svg>
