<svg width="61" height="61" viewBox="0 0 61 61" fill="none" xmlns="http://www.w3.org/2000/svg">
<path d="M48.3391 14.5085L32.6648 6.05722C31.0149 5.15709 29.0149 5.15693 27.3648 6.05679L11.6891 14.5055C10.5391 15.1304 9.83895 16.3304 9.83884 17.7054C9.83873 19.0554 10.5386 20.2804 11.6886 20.9055L27.3629 29.3568C28.1879 29.8069 29.1128 30.0319 30.0128 30.032C30.9128 30.0321 31.8379 29.8072 32.6629 29.3572L48.3386 20.9085C49.4886 20.2836 50.1887 19.0836 50.1888 17.7086C50.189 16.3336 49.4891 15.1336 48.3391 14.5085Z" fill="#CFFE25"/>
<path opacity="0.4" d="M24.79 32.2808L10.1906 24.9796C9.06564 24.4295 7.76564 24.4794 6.71558 25.1293C5.64053 25.8043 5.01544 26.9292 5.01533 28.1792L5.01422 41.9542C5.01402 44.3292 6.33885 46.4793 8.46376 47.5545L23.0382 54.8557C23.5381 55.1057 24.0881 55.2307 24.6381 55.2308C25.2881 55.2308 25.9382 55.0559 26.5132 54.7059C27.5882 54.056 28.2133 52.9061 28.2134 51.6561L28.2145 37.8811C28.2397 35.4811 26.9149 33.331 24.79 32.2808Z" fill="#CFFE25"/>
<path opacity="0.4" d="M53.3164 25.1328C52.2414 24.4827 50.9414 24.4076 49.8414 24.9825L35.2658 32.2813C33.1407 33.3561 31.8155 35.481 31.8153 37.881L31.8142 51.656C31.8141 52.906 32.439 54.0561 33.514 54.7062C34.0889 55.0562 34.7389 55.2313 35.3889 55.2313C35.9389 55.2313 36.4889 55.1064 36.9889 54.8564L51.5645 47.5576C53.6896 46.4828 55.0148 44.3579 55.015 41.9579L55.0161 28.1829C55.0162 26.9329 54.3913 25.8078 53.3164 25.1328Z" fill="#CFFE25"/>
</svg>
