<svg width="61" height="61" viewBox="0 0 61 61" fill="none" xmlns="http://www.w3.org/2000/svg">
<path d="M39.6922 5.0884C32.2672 5.08812 26.242 11.1129 26.2417 18.5379C26.2414 25.9629 32.2662 31.9881 39.6912 31.9884C47.1162 31.9887 53.1414 25.9639 53.1417 18.5389C53.142 11.1139 47.1172 5.08868 39.6922 5.0884Z" fill="#4169E1"/>
<path opacity="0.4" d="M16.614 33.2869C12.039 33.2868 8.28892 37.0116 8.28875 41.6116C8.28857 46.2116 12.0134 49.9368 16.6134 49.9369C21.1884 49.9371 24.9386 46.2123 24.9388 41.6123C24.9389 37.0123 21.189 33.2871 16.614 33.2869Z" fill="#4169E1"/>
<path opacity="0.4" d="M42.2652 42.263C38.3902 42.2628 35.2401 45.4127 35.24 49.2877C35.2398 53.1627 38.3897 56.3128 42.2647 56.313C46.1397 56.3131 49.2898 53.1632 49.29 49.2882C49.2901 45.4132 46.1402 42.2631 42.2652 42.263Z" fill="#4169E1"/>
</svg>
