<svg width="61" height="61" viewBox="0 0 61 61" fill="none" xmlns="http://www.w3.org/2000/svg">
<path opacity="0.4" d="M28.4746 38.3793C27.076 38.1523 25.797 37.5438 24.7904 36.5372M24.7904 36.5372C23.7838 35.5307 23.1754 34.2517 22.9483 32.853M24.7904 36.5372L10.9746 50.353" stroke="#FFFFFF" stroke-width="3" stroke-linecap="round"/>
<path opacity="0.4" d="M30.9746 15.353C32.7554 12.7258 35.1673 8.30604 38.7409 7.88048C41.1802 7.58999 43.201 9.61082 47.2427 13.6525L47.6752 14.085C51.7168 18.1266 53.7376 20.1474 53.4472 22.5868C53.0216 26.1603 48.6019 28.5723 45.9746 30.353" stroke="#FFFFFF" stroke-width="3" stroke-linejoin="round"/>
<path d="M34.1875 48.7648L15.5307 52.2294C11.9522 52.894 10.1629 53.2262 9.13218 52.1954C8.10141 51.1646 8.43366 49.3753 9.09818 45.7966L12.5627 27.1389C13.1182 24.1471 13.396 22.6512 14.3822 21.7473C15.3683 20.8434 17.1718 20.667 20.7789 20.3142C24.2553 19.9742 27.5454 18.7825 30.9746 15.353L45.9746 30.3544C42.5454 33.7838 41.3529 37.0716 41.0124 40.5482C40.659 44.1557 40.4823 45.9594 39.5785 46.9454C38.6748 47.9314 37.179 48.2092 34.1875 48.7648Z" stroke="#FFFFFF" stroke-width="3" stroke-linejoin="round"/>
</svg>
