<svg width="497" height="210" viewBox="0 0 497 210" fill="none" xmlns="http://www.w3.org/2000/svg">
<path d="M102.52 207V164.16H0.600001V137.28L102.24 2.87999H135.28V136.44H166.64V164.16H135.28V207H102.52ZM35.32 136.44H102.52V45.72L35.32 136.44ZM432.045 207V164.16H330.125V137.28L431.765 2.87999H464.805V136.44H496.165V164.16H464.805V207H432.045ZM364.845 136.44H432.045V45.72L364.845 136.44Z" fill="white"/>
<path d="M246.751 209.8C228.831 209.8 214.271 205.413 203.071 196.64C191.871 187.867 183.657 175.64 178.431 159.96C173.391 144.093 170.871 125.707 170.871 104.8C170.871 80.3467 173.951 60.4667 180.111 45.16C186.271 29.6667 195.044 18.28 206.431 11C217.817 3.71999 231.257 0.0799937 246.751 0.0799937C264.857 0.0799937 279.511 4.46666 290.711 13.24C301.911 22.0133 310.031 34.24 315.071 49.92C320.297 65.6 322.911 83.8933 322.911 104.8C322.911 129.253 319.737 149.227 313.391 164.72C307.231 180.213 298.457 191.6 287.071 198.88C275.871 206.16 262.431 209.8 246.751 209.8ZM246.751 180.96C257.204 180.96 265.511 177.973 271.671 172C277.831 165.84 282.311 157.067 285.111 145.68C287.911 134.293 289.311 120.667 289.311 104.8C289.311 85.3867 287.537 70.1733 283.991 59.16C280.444 48.1467 275.404 40.4 268.871 35.92C262.524 31.2533 255.151 28.92 246.751 28.92C236.484 28.92 228.177 32 221.831 38.16C215.671 44.1333 211.191 52.8133 208.391 64.2C205.777 75.4 204.471 88.9333 204.471 104.8C204.471 124.213 206.244 139.52 209.791 150.72C213.337 161.733 218.284 169.573 224.631 174.24C231.164 178.72 238.537 180.96 246.751 180.96Z" fill="#FFFFFF"/>
</svg>
