<svg width="256" height="256" viewBox="0 0 256 256" fill="none" xmlns="http://www.w3.org/2000/svg">
<rect width="256" height="256" fill="#010104"/>
<path d="M110 137.358V120.448H114.09L118.895 132.601H118.965L123.77 120.448H127.859V137.358H124.707V125.921H124.602L120.043 137.358H117.816L113.246 125.921H113.152V137.358H110ZM136.098 137.616C132.254 137.616 129.922 135.12 129.922 131.101V131.089C129.922 127.093 132.277 124.538 135.957 124.538C139.637 124.538 141.945 127.034 141.945 130.831V131.886H133.297C133.332 133.89 134.422 135.061 136.168 135.061C137.574 135.061 138.43 134.288 138.676 133.585L138.699 133.515H141.84L141.805 133.644C141.418 135.495 139.684 137.616 136.098 137.616ZM136.016 127.093C134.609 127.093 133.555 128.03 133.332 129.729H138.664C138.453 127.995 137.434 127.093 136.016 127.093ZM148.707 137.616C145.918 137.616 144.606 136.538 144.606 133.843V127.374H142.859V124.796H144.606V121.726H148.063V124.796H150.359V127.374H148.063V133.468C148.063 134.64 148.59 135.038 149.621 135.038C149.926 135.038 150.149 135.003 150.359 134.979V137.487C149.973 137.546 149.422 137.616 148.707 137.616ZM152.246 137.358V124.796H155.668V126.987H155.738C156.113 125.44 157.133 124.538 158.598 124.538C158.973 124.538 159.324 124.597 159.582 124.667V127.679C159.301 127.561 158.832 127.491 158.34 127.491C156.653 127.491 155.668 128.499 155.668 130.327V137.358H152.246ZM162.77 123.179C161.739 123.179 160.942 122.37 160.942 121.397C160.942 120.425 161.739 119.616 162.77 119.616C163.801 119.616 164.598 120.425 164.598 121.397C164.598 122.37 163.801 123.179 162.77 123.179ZM161.059 137.358V124.796H164.481V137.358H161.059ZM166.86 137.358V120.448H170.282V137.358H166.86ZM178.356 137.616C174.535 137.616 172.133 135.167 172.133 131.077V131.054C172.133 127.011 174.594 124.538 178.344 124.538C182.106 124.538 184.578 126.987 184.578 131.054V131.077C184.578 135.179 182.153 137.616 178.356 137.616ZM178.367 134.933C180.032 134.933 181.098 133.526 181.098 131.077V131.054C181.098 128.628 180.008 127.222 178.344 127.222C176.692 127.222 175.614 128.628 175.614 131.054V131.077C175.614 133.538 176.68 134.933 178.367 134.933Z" fill="white"/>
<path fill-rule="evenodd" clip-rule="evenodd" d="M78.1367 117.38H83.1455V126.919C83.1455 129.455 81.1104 131.511 78.6 131.511H76.4322V119.102C76.4322 118.151 77.1953 117.38 78.1367 117.38ZM96.0818 125.294C93.5714 125.294 91.5363 127.35 91.5363 129.886V139.425H96.5451C97.4865 139.425 98.2497 138.654 98.2497 137.702V125.294H96.0818ZM88.8096 124.163C86.2992 124.163 84.2641 122.107 84.2641 119.571V117.38H96.5455C97.4869 117.38 98.2501 118.151 98.2501 119.102V124.163H88.8096ZM76.4318 137.702C76.4318 138.654 77.195 139.425 78.1364 139.425H90.4178V137.234C90.4178 134.698 88.3828 132.642 85.8724 132.642H76.4318V137.702Z" fill="#FFFFFF"/>
</svg>
