<svg width="40" height="41" viewBox="0 0 40 41" fill="none" xmlns="http://www.w3.org/2000/svg">
<path fill-rule="evenodd" clip-rule="evenodd" d="M8.72494 12.4883C9.19992 10.4352 11.2528 9.15508 13.3103 9.62913L27.0496 12.7944C29.1071 13.2683 30.3899 15.3169 29.9148 17.37L26.7428 31.0804C26.2679 33.1335 24.215 34.4136 22.1576 33.9396L8.41817 30.7743C6.36075 30.3003 5.07792 28.2517 5.55295 26.1987L8.72494 12.4883ZM13.2562 9.66238C13.7311 7.60933 15.7841 6.3292 17.8415 6.80323L31.5808 9.96852C33.6384 10.4425 34.9212 12.4911 34.4461 14.5442L31.2741 28.2545C30.7992 30.3077 28.7463 31.5878 26.6888 31.1137L12.9495 27.9485C10.892 27.4745 9.60919 25.4259 10.0842 23.3728L13.2562 9.66238Z" fill="#FFFFFF"/>
</svg>
