<svg width="40" height="41" viewBox="0 0 40 41" fill="none" xmlns="http://www.w3.org/2000/svg">
<path opacity="0.4" d="M26.4646 9.57312H13.5353C11.1551 9.57312 9.22559 11.507 9.22559 13.8925V26.8505C9.22559 29.236 11.1551 31.1698 13.5353 31.1698H26.4646C28.8449 31.1698 30.7744 29.236 30.7744 26.8505V13.8925C30.7744 11.507 28.8449 9.57312 26.4646 9.57312Z" fill="#CFFE25"/>
<path opacity="0.2" d="M22.6932 13.3523H9.76386C7.38365 13.3523 5.4541 15.2861 5.4541 17.6716V30.6297C5.4541 33.0152 7.38365 34.949 9.76386 34.949H22.6932C25.0734 34.949 27.0029 33.0152 27.0029 30.6297V17.6716C27.0029 15.2861 25.0734 13.3523 22.6932 13.3523Z" fill="#CFFE25"/>
<path d="M30.2361 5.79346H17.3068C14.9266 5.79346 12.9971 7.72729 12.9971 10.1128V23.0708C12.9971 25.4563 14.9266 27.3902 17.3068 27.3902H30.2361C32.6163 27.3902 34.5459 25.4563 34.5459 23.0708V10.1128C34.5459 7.72729 32.6163 5.79346 30.2361 5.79346Z" fill="#CFFE25"/>
</svg>
