<svg width="51" height="51" viewBox="0 0 51 51" fill="none" xmlns="http://www.w3.org/2000/svg">
<path d="M41.4377 15.9371L38.2715 19.1034L31.8965 12.7284L35.0627 9.56213C35.9552 8.66963 37.1027 8.24463 38.2502 8.24463C39.3977 8.24463 40.5452 8.66963 41.4377 9.56213C43.2015 11.3259 43.2015 14.1734 41.4377 15.9371Z" fill="#CFFE25"/>
<path opacity="0.4" d="M38.2698 19.1038L13.8111 43.5625C12.0473 45.3263 9.19984 45.3263 7.43609 43.5625C5.67234 41.7988 5.67234 38.9513 7.43609 37.1875L31.8948 12.7288L38.2698 19.1038Z" fill="#CFFE25"/>
<path d="M21.1448 7.4376L22.0161 4.48385C22.1011 4.2076 22.0161 3.9101 21.8248 3.6976C21.6336 3.4851 21.2936 3.4001 21.0173 3.4851L18.0636 4.35635L15.1098 3.4851C14.8336 3.4001 14.5361 3.4851 14.3236 3.67635C14.1111 3.88885 14.0473 4.18635 14.1323 4.4626L14.9823 7.4376L14.1111 10.3913C14.0261 10.6676 14.1111 10.9651 14.3023 11.1776C14.5148 11.3901 14.8123 11.4538 15.0886 11.3688L18.0636 10.5188L21.0173 11.3901C21.1023 11.4113 21.1661 11.4326 21.2511 11.4326C21.4636 11.4326 21.6548 11.3476 21.8248 11.1988C22.0373 10.9863 22.1011 10.6888 22.0161 10.4126L21.1448 7.4376Z" fill="#CFFE25"/>
<path d="M12.6448 20.1876L13.5161 17.2338C13.6011 16.9576 13.5161 16.6601 13.3248 16.4476C13.1123 16.2351 12.8148 16.1713 12.5386 16.2563L9.56357 17.1063L6.60982 16.2351C6.33357 16.1501 6.03607 16.2351 5.82357 16.4263C5.61107 16.6388 5.54732 16.9363 5.63232 17.2126L6.48232 20.1876L5.61107 23.1413C5.52607 23.4176 5.61107 23.7151 5.80232 23.9276C6.01482 24.1401 6.31232 24.2038 6.58857 24.1188L9.54232 23.2476L12.4961 24.1188C12.5598 24.1401 12.6448 24.1401 12.7298 24.1401C12.9423 24.1401 13.1336 24.0551 13.3036 23.9063C13.5161 23.6938 13.5798 23.3963 13.4948 23.1201L12.6448 20.1876Z" fill="#CFFE25"/>
<path d="M44.5179 30.8124L45.3892 27.8587C45.4742 27.5824 45.3892 27.2849 45.1979 27.0724C44.9854 26.8599 44.6879 26.7962 44.4117 26.8812L41.4579 27.7524L38.5042 26.8812C38.2279 26.7962 37.9304 26.8812 37.7179 27.0724C37.5054 27.2849 37.4417 27.5824 37.5267 27.8587L38.3979 30.8124L37.5267 33.7662C37.4417 34.0424 37.5267 34.3399 37.7179 34.5524C37.9304 34.7649 38.2279 34.8287 38.5042 34.7437L41.4579 33.8724L44.4117 34.7437C44.4754 34.7649 44.5604 34.7649 44.6454 34.7649C44.8579 34.7649 45.0492 34.6799 45.2192 34.5312C45.4317 34.3187 45.4954 34.0212 45.4104 33.7449L44.5179 30.8124Z" fill="#CFFE25"/>
</svg>
