<svg xmlns="http://www.w3.org/2000/svg" viewBox="0 0 36 36" fill="none">
  <!-- Deep teal shield/vault -->
  <path d="M18 2L4 7.5V18.5C4 25.8 10.2 32.3 18 34C25.8 32.3 32 25.8 32 18.5V7.5L18 2Z" 
        fill="#0d1518" stroke="#3a9faa" stroke-width="1.5"/>
  <!-- Raven mark in teal -->
  <path d="M18 10C16.2 10 15 11.2 15 12.5C15 13 15.2 13.4 15.5 13.8L12 16L13.5 16.5L12.5 18L14.5 17.5L14 19.5L16 18.5C16.5 19.2 17.2 19.8 18 20C19.5 20 21 18.8 21 17C21 15.8 20.3 14.8 19.3 14.3L21.5 12.5C20.8 11 19.6 10 18 10Z" 
        fill="#3a9faa"/>
</svg>
